<svg id="visual" viewBox="0 0 900 600" width="900" height="600" xmlns="http://www.w3.org/2000/svg" xmlns:xlink="http://www.w3.org/1999/xlink" version="1.1"><rect x="0" y="0" width="900" height="600" fill="#f0f6f5"></rect><path d="M0 436L21.5 427.5C43 419 86 402 128.8 405.5C171.7 409 214.3 433 257.2 450.5C300 468 343 479 385.8 489.8C428.7 500.7 471.3 511.3 514.2 511.5C557 511.7 600 501.3 642.8 478.5C685.7 455.7 728.3 420.3 771.2 405.2C814 390 857 395 878.5 397.5L900 400L900 601L878.5 601C857 601 814 601 771.2 601C728.3 601 685.7 601 642.8 601C600 601 557 601 514.2 601C471.3 601 428.7 601 385.8 601C343 601 300 601 257.2 601C214.3 601 171.7 601 128.8 601C86 601 43 601 21.5 601L0 601Z" fill="#3498db" stroke-linecap="round" stroke-linejoin="miter"></path></svg>