<svg id="visual" viewBox="0 0 900 600" width="900" height="600" xmlns="http://www.w3.org/2000/svg" xmlns:xlink="http://www.w3.org/1999/xlink" version="1.1"><rect x="0" y="0" width="900" height="600" fill="#f0f6f5"></rect><path d="M0 454L25 462.7C50 471.3 100 488.7 150 494C200 499.3 250 492.7 300 478.2C350 463.7 400 441.3 450 425.3C500 409.3 550 399.7 600 387.2C650 374.7 700 359.3 750 370.2C800 381 850 418 875 436.5L900 455L900 601L875 601C850 601 800 601 750 601C700 601 650 601 600 601C550 601 500 601 450 601C400 601 350 601 300 601C250 601 200 601 150 601C100 601 50 601 25 601L0 601Z" fill="#3498db" stroke-linecap="round" stroke-linejoin="miter"></path></svg>